#!OML:ASF G:\JayActor3\Patient Classification 1\Patient 1\Session 5\male.ASF
:FULLY-SPECIFIED
:DEGREES
1266
root -58.5255 16.5474 -5.20243 -497.967 91.7596 -512.712
lowerback 27.5859 -1.62049 2.39998
upperback 9.59101 -0.78569 -2.8205
thorax -4.61066 0.0485103 -4.27409
lowerneck -1.06974 -0.348227 3.00836
upperneck -17.3564 0.332474 1.5586
head -5.0455 0.0939559 -0.0484693
rclavicle 1.55052e-014 1.35174e-014
rhumerus -31.0227 -0.875614 -90.7653
rradius 47.1954
rwrist -3.22698
rhand -20.9278 -10.3604
rfingers 7.12502
rthumb 5.44403 -40.2705
lclavicle 1.55052e-014 1.35174e-014
lhumerus -24.8658 4.26003 81.6129
lradius 34.0634
lwrist 21.8416
lhand -22.2915 15.3426
lfingers 7.12502
lthumb 4.12727 45.2824
rfemur -33.3517 0.972782 22.4359
rtibia 51.7883
rfoot -35.4195 -9.80444
rtoes 14.1866
lfemur -42.8262 4.47549 -23.746
ltibia 40.4856
lfoot -14.2004 -5.79043
ltoes -9.49178
1267
root -58.5849 16.5623 -5.17723 -496.182 91.6215 -510.841
lowerback 27.4172 -1.65421 2.49287
upperback 9.56671 -0.812636 -2.80545
thorax -4.56092 0.0345171 -4.30125
lowerneck -1.09289 -0.364402 3.01524
upperneck -17.3096 0.311766 1.58643
head -5.02739 0.0819534 -0.0400077
rclavicle 3.97569e-016 -1.86858e-014
rhumerus -31.1355 -0.903834 -90.7438
rradius 47.2147
rwrist -3.28705
rhand -20.8829 -10.4457
rfingers 7.12502
rthumb 5.4874 -40.3546
lclavicle 3.97569e-016 -1.86858e-014
lhumerus -24.8366 4.25547 81.6895
lradius 33.8035
lwrist 21.7929
lhand -22.2176 15.2802
lfingers 7.12502
lthumb 4.19863 45.2186
rfemur -33.0881 1.18815 22.5763
rtibia 51.1319
rfoot -35.7038 -10.1786
rtoes 14.8149
lfemur -42.7035 4.47653 -23.6026
ltibia 40.0891
lfoot -13.9489 -6.04261
ltoes -10.2729
1268
root -58.6433 16.577 -5.15389 -495.115 91.4532 -509.7
lowerback 27.2418 -1.69654 2.64007
upperback 9.52678 -0.838989 -2.78016
thorax -4.52559 0.0199091 -4.3489
lowerneck -1.09966 -0.3829 3.0209
upperneck -17.2631 0.288073 1.61505
head -5.0121 0.0681833 -0.0309892
rclavicle -1.27222e-014 -2.74323e-014
rhumerus -31.2525 -0.903088 -90.7171
rradius 47.1999
rwrist -3.31235
rhand -20.8708 -10.4836
rfingers 7.12502
rthumb 5.49908 -40.3923
lclavicle -1.27222e-014 -2.74323e-014
lhumerus -24.8127 4.05452 81.7938
lradius 33.5059
lwrist 21.9271
lhand -22.203 15.1834
lfingers 7.12502
lthumb 4.21275 45.1215
rfemur -32.8565 1.43189 22.7365
rtibia 50.5131
rfoot -35.9041 -10.5138
rtoes 15.2248
lfemur -42.6034 4.46265 -23.4119
ltibia 39.7173
lfoot -13.6885 -6.31373
ltoes -10.9726
1269
root -58.7005 16.5915 -5.13275 -494.866 91.2733 -509.39
lowerback 27.0562 -1.74738 2.81365
upperback 9.47985 -0.871009 -2.74375
thorax -4.49367 0.00194121 -4.39787
lowerneck -1.13675 -0.389474 3.01474
upperneck -17.1896 0.277048 1.63697
head -4.98323 0.0622396 -0.0225559
rclavicle -6.55989e-015 -8.54774e-015
rhumerus -31.3269 -0.849566 -90.6836
rradius 47.143
rwrist -3.34908
rhand -20.8333 -10.5576
rfingers 7.12502
rthumb 5.53526 -40.4653
lclavicle -6.55989e-015 -8.54774e-015
lhumerus -24.8005 3.79873 81.9165
lradius 33.2212
lwrist 22.1359
lhand -22.2093 15.1497
lfingers 7.12502
lthumb 4.20667 45.0879
rfemur -32.6543 1.6924 22.9017
rtibia 49.9345
rfoot -36.0218 -10.8026
rtoes 15.4097
lfemur -42.527 4.44074 -23.1917
ltibia 39.3715
lfoot -13.4281 -6.57838
ltoes -11.6321
1270
root -58.7561 16.6066 -5.11367 -495.189 91.077 -509.642
lowerback 26.8653 -1.8025 3.02193
upperback 9.43179 -0.900699 -2.70373
thorax -4.46039 -0.0146262 -4.46378
lowerneck -1.16193 -0.398816 3.02724
upperneck -17.1135 0.260703 1.64458
head -4.95561 0.0530765 -0.0214543
rclavicle 9.54166e-015 4.1546e-014
rhumerus -31.3665 -0.79818 -90.6456
rradius 47.0099
rwrist -3.30929
rhand -20.8546 -10.5353
rfingers 7.12502
rthumb 5.51473 -40.4435
lclavicle 9.54166e-015 4.1546e-014
lhumerus -24.8078 3.42799 82.0558
lradius 32.9562
lwrist 22.4423
lhand -22.2432 15.1033
lfingers 7.12502
lthumb 4.17393 45.0422
rfemur -32.4597 1.94084 23.0718
rtibia 49.3968
rfoot -36.0558 -11.0532
rtoes 15.3785
lfemur -42.4511 4.40927 -22.9505
ltibia 39.0496
lfoot -13.1766 -6.82489
ltoes -12.3327
